<svg xmlns="http://www.w3.org/2000/svg" width="16" height="16" fill="none" viewBox="0 0 16 16"><path fill="#313237" fill-rule="evenodd" d="M9.629 1.631a4.366 4.366 0 0 1 5.707 5.707 4.4 4.4 0 0 1-.947 1.417l-5.894 5.893a.7.7 0 0 1-.99 0L1.612 8.755a4.368 4.368 0 0 1 6.177-6.177L8 2.79l.212-.211a4.4 4.4 0 0 1 1.417-.947m3.77 1.937a2.967 2.967 0 0 0-4.197 0l-.707.707a.7.7 0 0 1-.99 0l-.707-.707a2.968 2.968 0 1 0-4.197 4.197l5.4 5.398 5.397-5.398A2.97 2.97 0 0 0 13.398 3.568" clip-rule="evenodd"/></svg>